HIERARCHY
ROOT Hips
{
	OFFSET 0.00000 0.00000 0.00000
	CHANNELS 6 Xposition Yposition Zposition Zrotation Yrotation Xrotation 
	JOINT LHipJoint
	{
		OFFSET 0 0 0
		CHANNELS 3 Zrotation Yrotation Xrotation
		JOINT LeftUpLeg
		{
			OFFSET 1.58161 -1.81893 0.78828
			CHANNELS 3 Zrotation Yrotation Xrotation
			JOINT LeftLeg
			{
				OFFSET 2.53374 -6.96141 0.00000
				CHANNELS 3 Zrotation Yrotation Xrotation
				JOINT LeftFoot
				{
					OFFSET 2.63509 -7.23986 0.00000
					CHANNELS 3 Zrotation Yrotation Xrotation
					JOINT LeftToeBase
					{
						OFFSET 0.14115 -0.38781 2.05350
						CHANNELS 3 Zrotation Yrotation Xrotation
						End Site
						{
							OFFSET 0.00000 -0.00000 1.05543
						}
					}
				}
			}
		}
	}
	JOINT RHipJoint
	{
		OFFSET 0 0 0
		CHANNELS 3 Zrotation Yrotation Xrotation
		JOINT RightUpLeg
		{
			OFFSET -1.11138 -1.81893 0.78828
			CHANNELS 3 Zrotation Yrotation Xrotation
			JOINT RightLeg
			{
				OFFSET -2.58392 -7.09926 0.00000
				CHANNELS 3 Zrotation Yrotation Xrotation
				JOINT RightFoot
				{
					OFFSET -2.66423 -7.31992 0.00000
					CHANNELS 3 Zrotation Yrotation Xrotation
					JOINT RightToeBase
					{
						OFFSET -0.18831 -0.51739 2.12114
						CHANNELS 3 Zrotation Yrotation Xrotation
						End Site
						{
							OFFSET -0.00000 -0.00000 1.09845
						}
					}
				}
			}
		}
	}
	JOINT LowerBack
	{
		OFFSET 0 0 0
		CHANNELS 3 Zrotation Yrotation Xrotation
		JOINT Spine
		{
			OFFSET -0.01511 1.97958 -0.08829
			CHANNELS 3 Zrotation Yrotation Xrotation
			JOINT Spine1
			{
				OFFSET 0.08344 1.97334 -0.04330
				CHANNELS 3 Zrotation Yrotation Xrotation
				JOINT Neck
				{
					OFFSET 0 0 0
					CHANNELS 3 Zrotation Yrotation Xrotation
					JOINT Neck1
					{
						OFFSET 0.00559 1.76246 0.31246
						CHANNELS 3 Zrotation Yrotation Xrotation
						JOINT Head
						{
							OFFSET -0.07011 1.80354 -0.30524
							CHANNELS 3 Zrotation Yrotation Xrotation
							End Site
							{
								OFFSET -0.02385 1.83547 -0.13906
							}
						}
					}
				}
				JOINT LeftShoulder
				{
					OFFSET 0 0 0
					CHANNELS 3 Zrotation Yrotation Xrotation
					JOINT LeftArm
					{
						OFFSET 3.20667 1.30156 -0.60240
						CHANNELS 3 Zrotation Yrotation Xrotation
						JOINT LeftForeArm
						{
							OFFSET 4.95663 -0.00000 0.00000
							CHANNELS 3 Zrotation Yrotation Xrotation
							JOINT LeftHand
							{
								OFFSET 3.38177 -0.00000 0.00000
								CHANNELS 3 Zrotation Yrotation Xrotation
								JOINT LeftFingerBase
								{
									OFFSET 0 0 0
									CHANNELS 3 Zrotation Yrotation Xrotation
									JOINT LeftHandIndex1
									{
										OFFSET 0.66291 -0.00000 0.00000
										CHANNELS 3 Zrotation Yrotation Xrotation
										End Site
										{
											OFFSET 0.53445 -0.00000 0.00000
										}
									}
								}
								JOINT LThumb
								{
									OFFSET 0 0 0
									CHANNELS 3 Zrotation Yrotation Xrotation
									End Site
									{
										OFFSET 0.54261 -0.00000 0.54261
									}
								}
							}
						}
					}
				}
				JOINT RightShoulder
				{
					OFFSET 0 0 0
					CHANNELS 3 Zrotation Yrotation Xrotation
					JOINT RightArm
					{
						OFFSET -3.06877 1.34672 -0.60964
						CHANNELS 3 Zrotation Yrotation Xrotation
						JOINT RightForeArm
						{
							OFFSET -5.08365 -0.00000 0.00000
							CHANNELS 3 Zrotation Yrotation Xrotation
							JOINT RightHand
							{
								OFFSET -3.35984 -0.00000 0.00000
								CHANNELS 3 Zrotation Yrotation Xrotation
								JOINT RightFingerBase
								{
									OFFSET 0 0 0
									CHANNELS 3 Zrotation Yrotation Xrotation
									JOINT RightHandIndex1
									{
										OFFSET -0.82076 -0.00000 0.00000
										CHANNELS 3 Zrotation Yrotation Xrotation
										End Site
										{
											OFFSET -0.66172 -0.00000 0.00000
										}
									}
								}
								JOINT RThumb
								{
									OFFSET 0 0 0
									CHANNELS 3 Zrotation Yrotation Xrotation
									End Site
									{
										OFFSET -0.67182 -0.00000 0.67182
									}
								}
							}
						}
					}
				}
			}
		}
	}
}
MOTION
Frames: 7
Frame Time: .0083333
0.6073 18.1678 -8.5393 0 0 0 0 0 0 -21 0 0 0 0 0 0 0 0 0 0 0 0 0 0 21 0 0 0 0 0 0 0 0 0 0 0 0 0 0 0 0 0 0 0 0 0 0 -16 0 0 21 0 0 11 0 0 0 -8 0 0 0 0 0 0 0 0 0 0 0 0 0 0 0 0 0 0 0 0 8 0 0 0 0 0 0 0 0 0 0 0 0 0 0 0 0 0
0.6073 18.1678 -8.5393 -1.7241 -4.4188 9.6892 0.0000 0.0000 0.0000 -15.1375 -4.2339 -12.3324 1.3086 7.2464 20.4476 0.5155 -3.9369 -12.7919 0.2909 -3.4685 -9.5860 0.0000 0.0000 0.0000 22.0244 6.2135 -14.0597 -1.8110 -8.4609 24.1229 -0.6085 -2.0213 -15.6046 -0.0190 -0.8900 2.4462 -2.6461 0.7833 -6.2453 4.1452 1.0956 -0.2820 5.9071 0.4815 3.0831 0.7551 1.1995 -15.3319 -6.5542 4.5127 42.1737 -2.3924 1.0226 18.8201 0.0000 -0.0000 0.0000 -88.3397 0.9079 22.9322 16.0269 -25.5571 -3.6576 -0.0000 0.0000 -6.1186 6.1554 36.4970 3.6702 -7.1250 0.0000 -0.0000 -34.1855 63.3943 -16.2005 0.0000 -0.0000 0.0000 83.1445 0.9518 19.9557 -13.4025 21.8740 -2.6013 0.0000 -0.0000 -8.0276 -18.2089 6.2012 -2.0351 7.1250 -0.0000 -0.0000 6.2929 -23.4624 3.2863
0.6230 18.1660 -8.5379 -1.7904 -4.4463 9.7828 0.0000 0.0000 0.0000 -15.1079 -4.3102 -12.4873 1.3277 7.2969 20.5981 0.5204 -3.8399 -12.8592 0.3642 -3.8764 -10.7293 0.0000 0.0000 0.0000 22.0220 6.1972 -14.1612 -1.8035 -8.4443 24.0719 -0.6149 -1.8951 -15.6190 -0.0261 -1.0432 2.8677 -2.5987 0.8074 -6.2705 4.1368 1.1263 -0.3597 5.8726 0.5008 3.0139 0.8252 1.2230 -15.3192 -6.5203 4.5119 42.2008 -2.3902 1.0385 18.8332 -0.0000 0.0000 0.0000 -88.3881 1.0334 22.8518 15.9091 -25.3973 -3.6069 -0.0000 0.0000 -5.8958 5.9372 36.2621 3.5199 -7.1250 0.0000 -0.0000 -34.1250 63.1462 -15.9709 -0.0000 0.0000 0.0000 83.2163 0.8476 19.8772 -13.4508 21.9442 -2.6194 0.0000 -0.0000 -8.0176 -18.2434 6.4700 -2.1272 7.1250 -0.0000 -0.0000 6.2614 -23.1801 3.3104
0.6368 18.1660 -8.5380 -1.7878 -4.4739 9.8662 0.0000 0.0000 0.0000 -15.1395 -4.4333 -12.5571 1.3346 7.3152 20.6525 0.5233 -3.8633 -12.8935 0.2559 -3.2545 -8.9882 0.0000 0.0000 0.0000 21.9507 6.2040 -14.2752 -1.8022 -8.4414 24.0630 -0.6128 -1.8269 -15.5603 -0.0286 -1.0924 3.0031 -2.5853 0.8202 -6.1744 4.0846 1.1460 -0.4836 5.8059 0.5182 2.8303 1.1368 1.3498 -15.3045 -6.6421 4.6539 42.1944 -2.4786 1.1301 18.8500 -0.0000 0.0000 0.0000 -88.3904 1.2161 22.7381 15.7968 -25.2444 -3.5589 -0.0000 0.0000 -5.6287 5.8406 35.9883 3.4398 -7.1250 0.0000 -0.0000 -33.8995 62.8982 -15.6558 -0.0000 0.0000 0.0000 83.3287 0.7474 19.8068 -13.4576 21.9540 -2.6219 0.0000 -0.0000 -8.0034 -18.3757 6.9265 -2.2941 7.1250 -0.0000 -0.0000 6.1553 -22.6971 3.3222
0.6483 18.1703 -8.5345 -1.7843 -4.5041 9.8983 0.0000 0.0000 0.0000 -15.1706 -4.5728 -12.5102 1.3379 7.3239 20.6786 0.5307 -3.8913 -12.9855 0.1499 -2.4947 -6.8749 0.0000 0.0000 0.0000 21.8997 6.2911 -14.2764 -1.8036 -8.4444 24.0723 -0.6076 -1.9143 -15.5406 -0.0290 -1.1002 3.0247 -2.6359 0.7827 -6.1384 4.0907 1.1002 -0.5466 5.8354 0.4978 2.7491 1.0218 1.3231 -15.3042 -6.6360 4.6502 42.2125 -2.4565 1.1092 18.8581 0.0000 -0.0000 0.0000 -88.4582 1.3779 22.6427 15.7142 -25.1316 -3.5237 -0.0000 0.0000 -5.5236 6.1000 35.6217 3.5617 -7.1250 0.0000 -0.0000 -33.2124 62.6653 -15.1194 0.0000 -0.0000 0.0000 83.3214 0.7147 20.0031 -13.4632 21.9621 -2.6240 0.0000 -0.0000 -8.0613 -18.5065 7.0659 -2.3578 7.1250 -0.0000 -0.0000 6.0572 -22.5454 3.2898
0.6606 18.1721 -8.5271 -1.6700 -4.5145 9.8919 0.0000 0.0000 0.0000 -15.3309 -4.6258 -12.4304 1.3363 7.3195 20.6655 0.5345 -3.9057 -13.0315 0.1611 -2.5858 -7.1276 0.0000 0.0000 0.0000 21.7346 6.2920 -14.2638 -1.8088 -8.4559 24.1076 -0.6100 -1.9546 -15.5898 -0.0299 -1.1167 3.0698 -2.8083 0.7051 -6.2668 4.0916 1.0085 -0.4952 5.9325 0.4455 2.8825 0.8909 1.2968 -15.3230 -6.6598 4.6575 42.1338 -2.4391 1.0863 18.8127 0.0000 0.0000 0.0000 -88.5816 1.3728 22.4663 15.6209 -25.0040 -3.4842 -0.0000 0.0000 -5.3194 6.2575 35.7206 3.6629 -7.1250 0.0000 -0.0000 -33.1659 62.7874 -15.1907 0.0000 0.0000 0.0000 83.2496 0.7966 20.3386 -13.4867 21.9962 -2.6328 0.0000 -0.0000 -8.1135 -18.6714 6.9484 -2.3410 7.1250 -0.0000 -0.0000 5.9383 -22.6610 3.2087
0.6724 18.1704 -8.5191 -1.5696 -4.5241 9.8610 0.0000 0.0000 0.0000 -15.4848 -4.4652 -12.3915 1.3299 7.3027 20.6152 0.5282 -4.0463 -12.9462 0.1778 -2.7164 -7.4902 0.0000 0.0000 0.0000 21.5858 6.1736 -14.2833 -1.8184 -8.4770 24.1727 -0.6267 -1.7714 -15.6982 -0.0464 -1.3897 3.8218 -2.9751 0.6862 -6.4304 4.0788 0.9955 -0.3983 6.0199 0.4298 3.0740 0.8963 1.2947 -15.4087 -6.7004 4.6641 42.0343 -2.4536 1.0834 18.7773 -0.0000 -0.0000 0.0000 -88.6878 1.2343 22.3258 15.4455 -24.7631 -3.4104 -0.0000 0.0000 -5.0264 6.2411 36.1969 3.6953 -7.1250 0.0000 -0.0000 -33.7392 63.1730 -15.7897 -0.0000 -0.0000 0.0000 83.2354 0.8894 20.3390 -13.5214 22.0464 -2.6458 0.0000 -0.0000 -8.1036 -18.7546 7.0315 -2.3801 7.1250 -0.0000 -0.0000 5.8761 -22.5701 3.1871
